<svg width="1333" height="1318" xmlns="http://www.w3.org/2000/svg" xmlns:xlink="http://www.w3.org/1999/xlink" xml:space="preserve" overflow="hidden"><g transform="translate(-1534 -625)"><g><g><g><path d="M1158.47 579.233C1158.47 899.135 899.135 1158.47 579.233 1158.47 259.331 1158.47-2.00855e-06 899.135-2.00855e-06 579.233-2.00855e-06 259.331 259.331-2.00855e-06 579.233-2.00856e-06 899.135-2.00856e-06 1158.47 259.331 1158.47 579.233Z" fill="#939598" transform="matrix(1 0 0 1.00046 1624.26 687)"/><path d="M629.188 1.76059C627.147 1.7935 623.676 2.86301 621.471 4.14643 619.266 5.41339 615.909 6.48291 614.017 6.51582 612.141 6.54873 610.183 7.63469 609.69 8.91811 607.271 15.3188 600.179 16.487 555.177 17.8198 515.967 19.0045 510.636 19.4981 501.981 22.7395 496.699 24.7305 487.683 27.6922 481.94 29.3047 473.976 31.5589 472.676 32.2829 476.477 32.3981 490.052 32.8094 496.091 39.7037 487.14 44.607 482.812 46.9764 482.894 47.0093 491.549 46.6967 499.513 46.3841 500.418 46.6967 500.879 49.9052 501.191 52.2088 500.171 54.101 497.933 55.3022 496.058 56.3223 494.873 58.1487 495.334 59.3499 496.453 62.2952 492.586 65.3392 489.328 64.0722 487.896 63.5128 486.728 61.6864 486.728 59.9751 486.728 56.1742 480.064 55.7135 477.103 59.3334 476.017 60.6662 474.091 61.7686 472.857 61.7686 469.517 61.7686 466.424 69.4691 468.793 71.8714 470.225 73.3194 471.459 72.908 474.026 70.1108 476.658 67.2478 478.814 66.5732 484.063 66.9517 491.878 67.5276 493.59 71.9866 486.317 72.8258 479.982 73.5662 480.871 76.5444 487.304 76.1166 493.721 75.6888 500.599 80.7402 505.733 89.6912 510.323 97.6879 510.093 100.074 504.235 105.504L499.283 110.078 502.985 112.71C505.025 114.142 507.658 115.327 508.81 115.327 509.961 115.327 513.779 116.808 517.251 118.601 524.276 122.221 526.613 127.569 523.651 133.179 522.137 136.059 522.286 137.293 524.507 139.777 527.633 143.266 526.662 147.494 522.483 148.745 514.832 151.032 499.529 159.884 497.308 163.307 495.926 165.429 491.615 169.066 487.732 171.369 483.585 173.821 480.278 177.145 479.719 179.415 479.028 182.196 476.708 183.957 471.311 185.816 460.648 189.502 451.089 195.524 445.247 202.27 441.512 206.581 437.382 209 429.517 211.501 420.023 214.528 417.522 214.693 406.696 213.163 399.999 212.192 385.009 211.649 373.36 211.929 355.573 212.356 351.344 212.949 346.901 215.68 343.989 217.457 339.184 219.448 336.206 220.09 333.228 220.732 325.528 223.792 319.061 226.902 303.677 234.29 301.357 233.813 302.031 223.364 302.788 211.731 305.832 205.758 317.12 193.862 336.009 173.936 360.723 158.025 369.69 160.016 373.656 160.888 374.133 160.608 373.392 157.811 372.455 154.125 379.579 149.469 386.177 149.469 388.283 149.469 391.327 147.988 392.956 146.162 394.569 144.352 402.977 139.119 411.632 134.545 429.287 125.183 431.344 123.373 433.368 115.442 434.783 109.897 441.249 105.01 451.681 101.604 454.544 100.666 451.928 99.8434 441.052 98.2473 433.104 97.0791 426.44 96.0754 426.227 95.9931 425.025 95.5818 426.062 87.7661 427.428 86.9269 429.912 85.3802 429.32 81.2503 426.621 81.2503 425.124 81.2503 424.219 82.7805 424.219 85.2486 424.219 90.5468 415.861 99.9421 404.968 106.919 400.114 110.028 392.413 115.754 387.872 119.654 383.314 123.554 375.005 128.819 369.378 131.369 362.664 134.413 357.613 138.066 354.618 142.048 352.101 145.388 347.79 149.502 345.026 151.213 339.546 154.586 329.625 155.343 326.893 152.595 325.692 151.361 323.421 152.085 319.127 155.03 315.787 157.317 311.92 159.259 310.489 159.358 305.47 159.703 299.876 158.881 298.543 157.597 296.387 155.508 301.883 146.524 312.479 134.759 317.893 128.737 323.668 121.875 325.281 119.473 326.91 117.087 330.151 114.389 332.488 113.484 336.042 112.118 337.177 112.414 339.546 115.392 341.636 118.009 343.413 118.65 346.391 117.91 348.596 117.334 350.406 115.82 350.406 114.52 350.406 113.221 352.578 111.016 355.227 109.634 362.467 105.833 361.052 103.957 350.949 103.957 343.611 103.957 340.435 104.895 334.446 108.794 328.358 112.76 325.939 113.434 321.003 112.628 316.577 111.904 315.129 110.95 315.54 109.025 315.853 107.593 316.971 106.59 318.025 106.82 319.078 107.034 320.756 107.412 321.76 107.626 322.763 107.857 324.178 105.915 324.886 103.299 326.383 97.9018 328.802 95.9273 333.952 95.8779 339.184 95.845 338.395 93.4263 331.862 89.5267 323.751 84.6727 317.103 85.2651 304.302 91.9125 293.623 97.4904 268.119 118.14 261.406 126.647 256.601 132.752 253.64 135.318 247.7 138.593 243.438 140.929 242.796 141.867 244.639 143.035 250.332 146.688 263.117 143.299 271.92 135.812 274.471 133.64 278.913 131.386 281.793 130.81 291.994 128.77 303.561 123.274 304.384 120.098 304.828 118.387 306.342 116.972 307.741 116.972 311.015 116.972 311.163 124.804 308.037 132.06 304.944 139.234 290.184 154.208 280.888 159.621 273.269 164.047 271.97 168.457 278.814 166.713 280.707 166.219 283.323 166.548 284.639 167.404 286.548 168.654 283.241 172.587 268.119 187.034 257.72 196.955 248.062 207.371 246.663 210.168 240.888 221.719 229.304 237.696 224.648 240.526 209.131 250.003 206.038 253.064 206.038 258.872 206.038 262.838 203.866 266.77 197.103 275.096 191.509 281.974 187.198 285.873 185.52 285.544 182.361 284.935 179.119 271.41 181.735 269.781 182.64 269.222 183.233 265.141 183.068 260.715 182.755 251.797 182.969 251.599 201.842 243.669L209.674 240.378 203.619 236.215C199.341 233.286 197.071 232.562 195.853 233.78 193.253 236.445 191.591 235.853 191.591 232.266 191.591 227.922 190.094 228.169 182.772 233.681 175.252 239.374 170.876 250.76 175.252 253.245 177.523 254.528 177.572 255.236 175.631 258.889 172.324 265.141 168.506 265.503 158.683 260.468 149.14 255.565 148.087 253.097 153.204 247.585 156.1 244.458 156.248 243.537 154.422 240.575 151.345 235.573 147.626 236.363 141.916 243.241 139.136 246.581 136.503 248.522 136.092 247.519 135.664 246.532 134.38 244.392 133.196 242.764 131.172 239.966 130.728 240.016 124.031 244.179 120.164 246.564 114.323 250.826 111.032 253.623 107.741 256.453 102.427 259.185 99.2017 259.711 93.6895 260.616 92.5871 261.916 80.6579 281.793 58.8069 318.173 33.7967 373.063 26.2443 401.151 24.6811 406.959 22.3117 414.988 20.946 419.02 8.88521 454.922 2.35293 491.237 0.641709 531.895-0.839158 567.106-0.0822704 587.378 3.15918 600.08 7.37143 616.6 11.8634 639.422 13.3772 652.059 18.4121 693.918 29.568 728.998 45.2652 752.215 47.8814 756.082 54.1833 767.27 59.2841 777.11 64.3684 786.933 70.3248 797.677 72.4967 800.985 77.581 808.718 82.945 829.138 81.5629 835.571 80.987 838.253 78.3379 843.551 75.6559 847.336L70.7855 854.23 76.7089 874.123C84.1955 899.281 87.4205 905.781 104.385 929.754 141.39 982.062 192.134 1033.07 243.734 1069.8 328.292 1130 420.649 1163.58 532.421 1174.79 548.859 1176.45 631.244 1174.41 649.969 1171.89 781.256 1154.24 896.797 1096.86 988.709 1003.68 1051.19 940.318 1098.23 864.349 1127.12 780.17 1134.3 759.257 1147.13 710.652 1147.79 701.915 1147.97 699.414 1145.15 691.302 1141.39 683.371 1134.41 668.826 1133.49 665.156 1136.3 663.396 1137.29 662.787 1136.34 660.417 1133.9 657.489 1131.68 654.807 1129.85 651.269 1129.85 649.607 1129.85 644.77 1137.62 636.625 1142.24 636.625 1146.04 636.625 1146.26 636.23 1145.35 630.636 1144.83 627.328 1142.18 620.204 1139.48 614.807 1136.7 609.245 1131.84 593.729 1128.29 579.151 1121.66 551.788 1119.54 546.934 1117.69 554.782 1117.08 557.366 1115.49 560.772 1114.16 562.335 1110.77 566.284 1108.12 563.618 1105.12 553.269 1103.11 546.292 1101.24 543.725 1093.98 538.016 1084.01 530.167 1084.14 530.101 1077.94 545.074 1073.45 555.967 1068.69 576.518 1064.84 601.726 1063.48 610.644 1060.83 622.343 1058.94 627.707 1055.04 638.78 1054.79 643.338 1057.41 656.518 1058.43 661.652 1059.96 669.895 1060.79 674.848 1061.91 681.429 1063.86 685.658 1068.03 690.594 1077.41 701.684 1078.63 714.486 1071.09 722.91 1065.32 729.377 1061.63 726.563 1058.06 712.939L1056.57 707.262 1053.6 713.334C1050.56 719.586 1047.06 721.824 1042.84 720.195 1041.51 719.685 1035.82 711.935 1030.19 702.968 1024.55 694 1015.51 679.85 1010.08 671.524 1004.65 663.182 999.701 654.675 999.075 652.585 998.45 650.496 996.492 646.152 994.732 642.927 991.836 637.612 990.733 636.954 983.28 636.164 974.23 635.177 958.5 628.743 955.143 624.63 953.958 623.198 952.033 622.03 950.832 622.03 949.631 622.03 946.225 619.842 943.197 617.16 940.186 614.478 937.076 612.273 936.287 612.273 934.263 612.273 913.07 623.626 909.845 626.423 906.274 629.55 878.484 635.391 871.984 634.404 866.373 633.548 865.699 634.766 868.627 640.393 871.194 645.329 873.103 646.316 880.096 646.349 886.859 646.382 893.374 649.245 897.718 654.132 900.269 656.995 900.4 658.558 898.87 668.513 897.916 674.65 895.711 681.66 893.983 684.078 892.256 686.497 890.824 690.232 890.824 692.371 890.824 694.51 889.014 698.969 886.826 702.26 884.621 705.551 882.811 708.809 882.811 709.484 882.811 710.158 880.639 712.824 877.99 715.407 875.341 717.974 873.185 720.985 873.185 722.087 873.185 723.19 869.072 726.892 864.053 730.314 859.018 733.72 852.651 739.808 849.886 743.823 844.769 751.277 820.466 771.417 807.435 779.019 803.469 781.339 796.591 785.666 792.149 788.661 787.723 791.639 781.454 794.65 778.245 795.357L772.404 796.624 774.609 801.906C777.998 810.034 783.905 809.13 808.866 796.657 820.466 790.865 832.017 784.58 834.535 782.688 838.286 779.874 839.751 779.578 842.531 781.092 844.407 782.112 845.921 784.35 845.921 786.044 845.921 787.739 846.727 790.948 847.714 793.153 849.146 796.345 848.981 797.908 846.908 800.902 845.477 802.976 844.308 805.773 844.308 807.139 844.275 811.614 826.752 851.17 820.647 860.549 817.373 865.583 805.641 879.208 794.584 890.824 746.801 941.025 742.49 946.373 743.033 954.485 743.231 957.611 742.671 961.05 741.783 962.12 740.697 963.436 740.763 966.052 741.997 970.05 743.346 974.526 743.33 977.06 741.931 980.186 739.068 986.554 739.693 990.766 744.07 994.88 747.822 998.401 748.085 999.635 748.085 1014.9L748.085 1031.18 740.467 1038.6C736.287 1042.68 728.883 1047.93 724.029 1050.28 719.175 1052.62 709.632 1058.18 702.82 1062.64L690.446 1070.73 691.417 1080.18C692.7 1092.67 690.315 1096.25 677.464 1101.14 669.056 1104.32 666.851 1106.03 663.017 1112.35 658.509 1119.78 650.545 1125.44 630.208 1135.69 615.119 1143.31 605.905 1145.09 572.076 1146.95 535.366 1148.97 527.567 1147.97 525.807 1140.91 524.721 1136.53 514.684 1126.58 504.416 1119.68 500.105 1116.8 495.416 1111.29 491.335 1104.33 487.847 1098.38 482.829 1091.07 480.212 1088.08 477.58 1085.1 475.441 1081.76 475.441 1080.67 475.441 1079.59 472.298 1074.76 468.464 1069.99 459.99 1059.46 456.189 1052.27 456.189 1046.84 456.189 1040.93 463.067 1026.26 468.003 1021.68 473.055 1016.96 473.219 1014.39 469.057 1005.08 467.312 1001.2 465.864 996.229 465.848 994.057 465.782 985.435 453.409 963.864 440.064 949.104 432.89 941.157 425.601 931.893 423.89 928.504 420.797 922.383 420.797 922.334 424.055 918.138 425.848 915.818 427.329 912.84 427.329 911.523 427.329 910.207 428.547 905.666 430.011 901.47 433.236 892.288 432.15 887.385 427.477 889.935 422.508 892.617 418.855 890.298 419.875 885.114L420.747 880.688 408.687 879.899C395.194 879.026 393.763 878.105 387.378 866.192 381.077 854.428 379.431 853.95 348.267 854.872 321.941 855.645 321.118 855.579 312.348 851.499 306.572 848.833 297.292 846.546 286.433 845.098 277.136 843.864 267.922 841.824 265.98 840.524 264.022 839.24 258.592 833.63 253.854 828.068 249.148 822.523 240.065 812.305 233.664 805.378 227.264 798.434 221.966 791.82 221.867 790.652 221.768 789.483 221.801 786.324 221.933 783.659 222.064 780.68 220.419 776.172 217.688 772.108 215.219 768.439 210.069 760.771 206.252 755.061L199.292 744.695 200.361 729.261C201.217 717.052 202.27 712.363 205.479 706.785 208.769 701.01 209.312 698.459 208.473 692.717 207.453 685.872 208.819 683.075 213.196 683.025 215.055 682.992 215.104 681.38 213.393 675.539 211.994 670.701 215.861 653.836 220.402 644.934 222.031 641.759 227.083 635.506 231.641 631.031 236.182 626.571 241.266 620.27 242.912 617.045 244.606 613.704 248.21 610.068 251.221 608.62 254.15 607.205 258.28 604.194 260.402 601.907 262.525 599.62 265.339 597.727 266.622 597.727 270.439 597.727 288.325 590.915 291.369 588.283 292.916 586.966 294.183 584.86 294.183 583.61 294.183 574.856 309.189 558.55 320.361 555.161 328.029 552.824 335.268 545.798 336.683 539.299 338.049 533.03 336.914 531.418 328.539 527.666 319.867 523.783 319.16 522.598 322.039 516.971 323.306 514.486 324.359 509.616 324.359 506.16 324.359 502.475 325.659 498.114 327.519 495.581 332.883 488.226 337.078 478.699 338.312 471.064 340.583 456.848 349.156 453.326 364.096 460.484 376.272 466.309 385.239 469.435 389.814 469.435 394.98 469.435 398.485 462.047 398.485 451.122 398.485 443.75 397.613 441.15 392.858 434.388 389.764 429.995 387.247 425.173 387.247 423.66 387.247 419.316 391.838 415.828 397.547 415.828 400.427 415.828 404.935 414.758 407.568 413.442 411.368 411.517 413.31 411.401 417.21 412.882 421.866 414.659 428.925 413.639 426.802 411.484 426.243 410.924 416.946 409.657 406.153 408.687 390.274 407.255 386.408 406.416 386.013 404.293 385.7 402.615 387.411 400.92 390.817 399.555 398.666 396.395 399.637 395.26 398.88 390.028L398.189 385.272 386.655 386.144C377.144 386.885 374.627 386.539 372.372 384.269 368.489 380.336 368.966 377.555 374.462 371.747 377.111 368.933 379.3 365.462 379.316 364.03 379.431 357.926 389.501 351.821 402.911 349.715 407.963 348.925 408.127 348.646 408.127 341.126 408.127 334.281 408.802 332.767 413.689 328.407 418.23 324.376 420.237 323.619 424.598 324.343 427.773 324.869 432.446 324.162 436.181 322.582 441.743 320.229 442.681 320.213 444.853 322.401 447.008 324.59 446.876 325.412 443.586 329.921 440.887 333.607 440.377 335.466 441.661 336.766 444.244 339.398 443.767 343.051 440.213 347.642 436.083 352.989 436.214 357.383 441.019 373.623 443.224 381.077 445.034 390.357 445.034 394.207 445.034 398.057 445.741 401.233 446.613 401.233 447.485 401.233 451.829 397.58 456.255 393.104 463.495 385.815 465.042 384.976 471.409 384.976 480.328 384.976 482.812 382.475 484.161 372.027 484.77 367.469 486.037 361.973 487.008 359.818 488.9 355.606 497.144 350.883 502.59 350.883 504.449 350.883 505.963 349.847 505.963 348.547 505.963 344.96 503.544 344.236 500.188 346.819 496.008 350.028 485.247 349.896 481.644 346.572 476.247 341.636 478.452 315.425 484.869 308.053 487.715 304.795 502.212 294.824 509.747 290.941 516.691 287.387 529.937 270.538 528.917 266.589 528.357 264.401 529.575 261.916 532.652 258.971 539.167 252.751 558.419 240.427 561.594 240.427 563.075 240.427 567.304 238.946 571.006 237.136 574.708 235.326 581.257 233.418 585.535 232.924 592.182 232.151 594.256 232.644 599.439 236.248 607.254 241.661 617.472 246.943 620.138 246.943 623.593 246.943 642.351 256.47 647.468 260.847 653.392 265.882 654.609 265.026 651.22 258.165 649.821 255.285 648.653 251.484 648.653 249.707 648.653 246.762 649.443 246.564 657.472 247.404 665.436 248.243 666.045 248.078 663.807 245.808 660.417 242.369 661.553 238.123 666.028 237.465 668.694 237.087 669.994 237.877 670.603 240.312 671.639 244.343 673.186 244.573 676.016 241.118 677.168 239.703 681.709 236.725 686.086 234.471 695.58 229.617 694.066 227.511 681.051 227.478 672.347 227.445 665.321 224.812 661.52 220.172 659.118 217.26 655.284 197.63 655.152 187.642 655.086 182.196 656.205 179.843 662.145 173.113 668.283 166.153 669.566 165.38 671.787 167.239 673.926 169.049 674.288 172.702 673.943 189.617 673.548 208.917 673.696 209.971 677.151 212.817 682.96 217.572 706.917 221.505 710.158 218.214 710.751 217.605 710.224 215.96 709.006 214.561 705.535 210.546 696.534 188.564 697.094 185.503 697.373 184.006 699.282 182.525 701.289 182.229 703.346 181.933 705.584 180.057 706.357 177.984 707.114 175.944 708.957 173.804 710.438 173.229 712.231 172.521 712.758 171.238 712.034 169.345 711.425 167.799 709.862 161.398 708.562 155.146 706.966 147.494 704.86 142.377 702.145 139.481 698.739 135.861 698.394 134.627 699.907 131.748 702.161 127.486 698.772 125.545 693.77 128.243 691.976 129.214 686.283 130.448 681.117 131.007 670.323 132.143 661.503 128.819 661.503 123.603 661.503 121.168 663.034 120.395 669.122 119.703 673.301 119.243 680.343 118.009 684.753 116.939 689.163 115.87 695.991 115.063 699.924 115.129 704.399 115.211 708.151 114.274 709.928 112.645 712.709 110.078 719.586 110.209 732.157 113.072 735.448 113.813 736.616 113.188 738.097 109.897 739.693 106.359 739.529 105.668 736.88 104.813 729.607 102.476 732.009 91.5834 740.17 89.938 748.99 88.161 745.353 82.4843 733.704 79.8352 728.307 78.6012 725.362 78.7822 721.15 80.5592 714.469 83.3893 706.505 83.5045 703.083 80.8225 698.542 77.2519 692.651 61.8015 695.843 61.8015 696.205 61.8015 697.571 61.3902 698.838 60.8966 700.171 60.37 703.708 62.4268 707.196 65.767 713.581 71.855 717.661 72.9574 720.59 69.3869 723.173 66.2277 720.212 57.3754 715.259 53.4264 712.988 51.6165 710.076 48.0788 708.809 45.5778 706.966 41.9579 703.593 39.967 692.404 35.8864 677.48 30.4401 636.427 12.1267 632.989 9.36237 631.87 8.47385 631.376 6.38418 631.903 4.72232 632.627 2.36939 632.018 1.71122 629.122 1.76059L629.138 1.76059ZM665.946 6.36773C664.268 6.30191 663.165 6.40064 663.165 6.71327 663.165 7.40434 664.432 8.30931 665.979 8.72066 669.731 9.70791 683.141 10.037 682.219 9.09911 681.166 8.02959 670.981 6.51582 665.946 6.35128L665.946 6.35128ZM468.662 32.5791C467.263 32.5791 464.104 33.3524 461.652 34.2903 458.082 35.656 457.67 36.2977 459.546 37.4989 463.1 39.7695 465.124 39.3911 468.316 35.8041 470.834 32.974 470.883 32.5462 468.678 32.5462L468.678 32.5462ZM468.579 49.6091C467.543 49.642 465.124 49.9875 462.343 50.4976 458.147 51.2709 454.347 53.2783 452.323 55.7793 450.529 57.9842 447.436 60.3042 445.461 60.913 442.417 61.8509 442.121 62.5255 443.586 65.3063 446.251 70.3577 452.652 67.8566 461.504 58.3133 465.683 53.8049 469.122 49.9052 469.122 49.6749 469.122 49.6091 468.925 49.5926 468.596 49.6091L468.596 49.6091ZM819.15 57.3918C818.245 57.3918 817.636 57.5235 817.324 57.8196 816.781 58.3955 819.199 61.4066 822.721 64.5165 829.878 70.8019 881.61 105.882 882.449 105.026 882.745 104.714 882.12 102.525 881.05 100.156 878.335 94.1338 880.655 92.3239 888.274 94.4464 891.63 95.3843 894.707 95.845 895.102 95.4337 895.941 94.5781 878.368 83.4222 857.406 71.5259 844.967 64.4671 825.403 57.4248 819.134 57.3918L819.134 57.3918ZM417.506 63.5128C412.273 63.4469 408.144 64.9278 408.144 66.8694 408.144 69.0413 413.228 68.5148 417.769 65.8821L421.767 63.5457 417.506 63.4963 417.506 63.4963ZM414.561 78.2885C413.837 78.2885 413.113 78.4037 412.553 78.6341 411.451 79.0783 412.356 79.4568 414.561 79.4568 416.765 79.4568 417.67 79.0948 416.568 78.6341 416.025 78.4037 415.301 78.2885 414.561 78.2885L414.561 78.2885ZM467.806 102.46C465.47 102.476 465.42 102.706 467.51 104.056 470.636 106.112 472.759 106.112 471.508 104.056 470.965 103.167 469.303 102.443 467.806 102.46L467.806 102.46ZM260.024 135.713C260.616 135.796 261.126 136.075 261.455 136.618 261.982 137.474 261.965 138.905 261.406 139.794 259.925 142.213 255.795 141.752 255.795 139.152 255.795 137.079 258.23 135.466 260.007 135.713L260.007 135.713ZM627.707 145.306C628.678 145.273 629.862 145.306 631.343 145.421 635.128 145.717 638.435 146.655 638.715 147.494 639.801 150.802 635.901 157.647 632.923 157.647 631.244 157.647 627.805 158.733 625.272 160.065 619.546 163.093 616.518 163.142 612.618 160.246 610.035 158.338 609.887 157.614 611.713 155.376 612.898 153.944 615.465 152.76 617.407 152.76 619.611 152.76 621.635 151.262 622.738 148.827 623.889 146.26 624.811 145.372 627.707 145.273L627.707 145.273ZM700.862 157.663C702.178 157.663 703.264 158.765 703.264 160.098 703.264 162.632 701.372 163.307 699.529 161.447 697.67 159.572 698.361 157.647 700.862 157.647L700.862 157.647ZM573.244 162.961C575.926 162.895 578.131 162.978 579.167 163.257 584.021 164.491 584.153 169.477 579.414 172.653 576.386 174.693 576.09 175.647 577.571 178.938 578.509 181.077 578.97 183.743 578.608 184.862 577.752 187.33 571.45 187.544 569.114 185.191 567.946 183.99 566.629 184.73 564.753 187.626 560.624 193.977 557.695 192.694 553.301 182.657 549.83 174.709 549.583 172.965 551.343 169.247 553.12 165.479 554.7 164.804 564.375 163.619 567.403 163.257 570.578 163.027 573.26 162.961L573.26 162.961ZM993.975 177.803C992.889 178.905 996.64 183.924 1008.72 197.548 1014.59 204.195 1020.2 209.641 1021.16 209.641 1022.19 209.641 1021.95 208.473 1020.56 206.795 1010.69 194.751 994.567 177.194 993.958 177.819L993.958 177.819ZM193.237 213.031C191.92 212.866 191.756 214.709 193.5 217.523 194.964 219.909 195.902 220.304 196.758 218.905 197.433 217.819 196.922 215.878 195.656 214.611 194.668 213.59 193.829 213.113 193.237 213.031L193.237 213.031ZM404.162 233.089C406.909 233.187 409.509 234.421 410.184 236.988 410.694 238.963 413.754 240.509 419.99 241.924 429.995 244.179 432.973 247.502 431.262 254.413 429.567 261.291 421.948 264.828 408.884 264.845 398.353 264.845 397.234 264.499 392.907 259.909 388.909 255.68 388.53 254.528 390.209 251.813 391.295 250.069 392.167 247.256 392.167 245.561 392.167 243.866 393.253 242.04 394.569 241.529 395.902 241.019 396.971 239.506 396.971 238.173 396.971 234.8 400.673 232.99 404.195 233.105L404.178 233.105ZM1033.48 239.637C1032.72 239.539 1032.36 240.23 1031.82 241.612 1029.8 246.828 1030.37 251.665 1033.25 253.311 1035.39 254.545 1036.2 254.298 1036.64 252.208 1036.97 250.727 1038.32 248.703 1039.65 247.733 1041.71 246.202 1041.41 245.396 1037.51 242.303 1035.37 240.592 1034.22 239.72 1033.45 239.637L1033.45 239.637ZM1045.54 250.859C1045.44 250.842 1045.38 250.842 1045.33 250.875 1045 251.204 1047.37 256.322 1050.58 262.229 1054.46 269.353 1057.65 273.302 1060.09 273.928 1062.09 274.438 1066.14 277.366 1069.05 280.41 1074.71 286.301 1075.36 286.729 1075.36 284.623 1075.36 281.102 1060.37 259.975 1057.87 259.975 1056.35 259.975 1053.03 257.803 1050.51 255.121 1048.31 252.784 1046.25 251.023 1045.54 250.842L1045.54 250.842ZM634.782 278.683C631.755 278.798 628.678 279.538 628.266 280.789 627.756 282.385 629.352 282.796 634.552 282.418 638.402 282.138 641.364 281.184 641.133 280.295 640.837 279.061 637.826 278.584 634.782 278.699L634.782 278.699ZM576.304 287.584C573.589 287.584 568.538 292.57 568.538 295.252 568.538 297.671 570.578 296.93 575.35 292.784 578.575 289.97 579.019 287.601 576.288 287.601L576.288 287.601ZM436.955 291.188C437.629 291.188 438.32 291.484 438.978 292.142 440.492 293.672 440.328 294.693 438.238 296.815 435.737 299.349 435.49 299.349 434.487 296.7 433.401 293.821 434.997 291.188 436.971 291.188L436.971 291.188ZM559.077 307.066C557.053 307.066 549.764 316.066 548.48 320.131 546.539 326.334 554.042 330.859 558.6 326.235 560.837 323.981 561.249 307.066 559.06 307.066L559.06 307.066ZM454.857 313.565C457.275 313.565 457.966 314.306 457.259 316.149 456.732 317.564 456.288 319.012 456.288 319.39 456.288 319.769 455.202 320.065 453.886 320.065 452.57 320.065 451.484 318.617 451.484 316.807 451.484 314.602 452.553 313.565 454.873 313.565L454.873 313.565ZM616.584 324.935C615.646 324.935 615.317 325.676 615.876 326.564 616.419 327.453 617.193 328.177 617.571 328.177 617.95 328.177 618.279 327.436 618.279 326.564 618.279 325.692 617.522 324.935 616.584 324.935L616.584 324.935ZM564.03 340.122C560.722 339.876 556 342.097 549.352 347 542.54 352.002 541.109 354.174 542.195 357.761 543.544 362.121 538.345 370.464 532.8 372.817 529.18 374.347 527.715 376.075 527.682 378.789 527.666 381.949 526.876 382.541 523.108 382.278 519.307 382.014 518.88 382.344 520.508 384.302 522.878 387.214 524.902 387.247 530.101 384.499 536.732 380.994 541.372 380.27 545.387 382.13 552.298 385.322 556.313 380.731 559.422 366.054 560.92 358.995 563.503 350.521 565.148 347.247 567.979 341.62 567.995 341.225 565.362 340.386 564.934 340.238 564.507 340.155 564.03 340.122L564.03 340.122ZM550.159 352.545C553.548 352.545 553.055 358.057 549.336 361.447 546.555 364.03 546.062 364.063 545.206 361.825 543.956 358.534 547.148 352.545 550.159 352.545L550.159 352.545ZM575.942 354.799C575.366 354.816 574.971 355.474 574.971 356.511 574.971 357.909 575.679 359.045 576.568 359.045 577.456 359.045 578.164 358.37 578.164 357.514 578.164 356.659 577.44 355.54 576.568 354.98 576.337 354.832 576.123 354.783 575.942 354.783L575.942 354.783ZM409.871 370.414C408.933 370.414 408.176 371.155 408.176 372.027 408.176 372.899 408.489 373.656 408.884 373.656 409.279 373.656 410.036 372.915 410.579 372.027 411.122 371.138 410.809 370.414 409.871 370.414L409.871 370.414ZM1122.51 383.808C1122.15 384.186 1122.6 388.448 1123.5 393.285 1124.41 398.123 1125.87 406.975 1126.69 412.948 1127.55 418.937 1130.05 429.287 1132.27 435.967 1134.48 442.664 1136.29 451.467 1136.29 455.548 1136.29 461.899 1135.83 462.969 1133.08 462.969 1131.32 462.969 1129.87 463.742 1129.87 464.68 1129.87 467.971 1134.48 475.21 1139.97 480.558 1143.03 483.553 1146.82 488.851 1148.38 492.356 1149.94 495.86 1151.44 498.493 1151.74 498.197 1152.02 497.901 1151.14 491.138 1149.78 483.158 1145.81 459.859 1138.56 430.784 1130.59 406.087 1126.51 393.45 1122.88 383.413 1122.5 383.791L1122.48 383.791ZM213.673 446.021C215.581 446.103 217.671 448.11 216.651 449.805 215.252 452.109 213.031 452.125 211.632 449.855 211.04 448.867 211.188 447.452 211.962 446.663 212.439 446.185 213.047 446.004 213.689 446.037L213.689 446.037ZM751.738 458.608C750.931 458.526 750.816 459.349 750.356 460.517 749.78 462.064 750.52 467.23 751.984 472.002 754.864 481.233 761.775 488.637 774.872 496.469 782.474 501.027 784.267 504.104 780.927 506.901 779.446 508.151 778.624 511.969 778.624 517.645 778.624 523.515 780.894 527.469 785.436 529.509 793.778 533.26 797.908 533.507 801.972 530.496 805.016 528.242 804.983 527.979 800.343 518.715 796.081 510.175 793.498 504.367 785.567 485.478 784.202 482.236 781.339 478.764 779.2 477.777 777.061 476.79 771.269 472.874 766.332 469.073 756.361 461.389 753.07 458.756 751.705 458.608L751.705 458.608ZM671.475 464.746C671.146 464.729 670.767 464.746 670.306 464.844 668.727 465.157 667.131 466.375 666.736 467.592 666.275 468.991 667.049 469.567 668.875 469.205 670.455 468.892 672.067 467.674 672.445 466.473 672.791 465.437 672.445 464.828 671.475 464.762L671.475 464.762ZM632.561 471.689C631.113 471.623 629.648 471.903 628.76 472.627 627.559 473.631 626.111 476.428 625.502 478.847 624.893 481.265 623.445 484.342 622.26 485.692 619.398 488.95 613.441 505.075 613.441 509.566 613.441 511.525 614.692 513.877 616.238 514.782 620.878 517.53 631.59 516.757 638.353 513.219 641.857 511.393 648.39 508.892 652.898 507.691 660.253 505.716 662.195 505.798 672.133 508.678 686.514 512.824 700.269 512.166 705.288 507.082 710.339 501.965 708.134 499.513 689.475 489.46 672.182 480.13 668.036 479.307 660.73 483.767 651.615 489.344 650.627 489.262 643.865 482.401 640.36 478.847 637.481 475.26 637.481 474.421 637.481 472.89 634.979 471.788 632.544 471.673L632.544 471.673ZM499.266 479.439C499.019 479.439 498.789 479.538 498.592 479.719 497.835 480.443 498.592 483.372 500.253 486.218 501.915 489.065 504.943 494.807 506.983 498.987 509.023 503.166 512.068 507.033 513.779 507.576 515.474 508.135 521.446 512.94 527.024 518.254 532.602 523.602 537.736 527.946 538.427 527.946 539.118 527.946 539.677 525.905 539.677 523.421 539.677 517.07 535.844 512.249 527.139 507.724 520.492 504.252 507.115 490.397 501.767 481.446 501.027 480.196 500.023 479.439 499.266 479.439L499.266 479.439ZM467.51 487.419C464.992 487.518 461.767 488.555 457.868 490.578 450.348 494.462 445.774 494.643 438.073 491.385 434.914 490.052 431.936 488.95 431.475 488.95 431.015 488.95 429.353 491.697 427.806 495.038 425.585 499.842 422.788 502.228 414.561 506.374 403.767 511.821 395.326 519.571 395.326 524.03 395.326 529.18 388.399 536.304 379.546 540.27 371.385 543.923 369.822 544.137 362.878 542.442 358.65 541.422 354.125 540.994 352.808 541.504 349.189 542.919 349.945 547.065 354.026 548.168 356.017 548.711 360.344 549.961 363.668 550.965 368.539 552.446 372.126 552.248 382.393 549.863 392.397 547.542 398.633 547.148 411.648 547.954 420.747 548.513 436.132 549.402 445.84 549.912 470.62 551.245 480.295 556.049 474.914 564.342 472.973 567.353 472.956 568.62 474.881 573.244 478.304 581.471 477.711 584.482 472.232 586.769L467.329 588.793 474.272 594.667C478.337 598.106 485.116 601.676 490.644 603.305 499.184 605.823 507.576 611.812 509.336 616.617 510.192 618.92 531.516 630.01 535.301 630.126 536.864 630.175 538.411 629.286 538.723 628.167 539.036 627.049 540.089 623.198 541.027 619.611 544.071 608.192 558.962 602.664 569.575 609.015 577.983 614.05 597.629 620.105 612.799 622.359 624.696 624.12 626.341 624.021 632.051 621.158 637.003 618.674 641.199 618.081 652.174 618.377L666.061 618.723 668.595 612.322C673.005 601.166 676.592 579.233 674.864 573.984 673.054 568.505 668.891 567.139 664.942 570.759 660.039 575.251 653.046 575.63 645.592 571.779L638.764 568.258 635.226 571.631C631.409 575.251 626.209 575.942 621.569 573.425 619.381 572.24 617.966 572.635 615.81 575.054 611.648 579.71 609.953 579.069 604.885 570.924 600.047 563.157 597.415 561.677 597.415 566.662 597.415 568.34 596.329 570.628 595.013 571.73 591.985 574.28 583.676 571.203 581.257 566.629 578.739 561.89 574.955 562.878 574.955 568.291 574.955 575.597 571.549 577.341 564.967 573.408 558.221 569.377 549.287 558.435 549.287 554.206 549.287 551.64 542.557 536.847 540.319 534.527 539.974 534.165 538.229 535.202 536.436 536.847 533.935 539.134 532.734 539.381 531.286 537.917 528.242 534.824 526.843 535.696 526.843 540.632 526.843 545.206 517.448 557.119 513.861 557.119 512.972 557.119 511.195 559.669 509.896 562.795 507.115 569.542 504.811 569.805 495.745 564.441 478.106 553.976 477.777 546.605 494.955 546.473 508.974 546.374 510.323 546.111 511.409 543.199 513.071 538.805 508.151 531.96 496.436 522.368 490.2 517.267 483.915 511.278 482.483 509.056 479.719 504.778 474.207 501.06 472.792 502.491 472.331 502.968 471.426 510.439 470.784 519.11 469.534 535.893 467.395 539.941 460.303 538.904 457.555 538.509 457.012 537.012 456.601 528.801 456.206 521.117 456.765 518.271 459.398 514.667 461.224 512.183 462.689 508.069 462.689 505.535 462.689 499.957 465.289 497.029 470.225 497.029 472.347 497.029 473.927 496.041 473.927 494.725 473.927 489.674 471.706 487.205 467.51 487.37L467.51 487.37ZM417.259 518.188C420.435 518.188 421.109 518.896 420.698 521.841 420.122 525.922 413.771 527.88 412.57 524.375 411.303 520.673 413.195 518.188 417.276 518.188L417.276 518.188ZM426.704 518.188C427.099 518.188 427.411 518.929 427.411 519.801 427.411 520.673 426.654 521.43 425.716 521.43 424.779 521.43 424.466 520.689 425.009 519.801 425.552 518.912 426.325 518.188 426.704 518.188L426.704 518.188ZM583.873 535.58C582.869 535.515 581.602 535.844 579.71 536.568 573.705 538.871 573.737 540.22 579.908 544.021 582.639 545.683 586.621 549.698 588.793 552.923 592.874 559.011 595.819 560.492 595.819 556.444 595.819 555.161 595.095 553.647 594.206 553.104 593.334 552.545 592.594 549.221 592.594 545.7 592.594 541.339 591.886 539.299 590.389 539.299 589.171 539.299 587.345 538.279 586.308 537.028 585.568 536.123 584.86 535.646 583.873 535.58L583.873 535.58ZM254.199 539.299C255.088 539.299 255.812 540.023 255.812 540.911 255.812 541.8 255.088 542.524 254.199 542.524 253.311 542.524 252.603 541.784 252.603 540.911 252.603 540.039 253.327 539.283 254.199 539.283L254.199 539.283ZM1156.9 556.23C1156.48 556.263 1156.1 557.316 1155.67 559.472 1154.4 565.757 1152.16 566.218 1146.9 561.265 1140.81 555.556 1139.48 556.099 1139.48 564.276 1139.48 574.56 1146.65 595.342 1152.74 602.68L1157.92 608.933 1158.37 584.317C1158.61 570.792 1158.3 558.6 1157.69 557.218 1157.4 556.543 1157.13 556.197 1156.89 556.23L1156.89 556.23ZM664.35 575.235C666.357 575.383 666.604 577.045 665.732 580.599 664.334 586.243 655.942 590.685 650.726 588.546 649.64 588.102 648.719 586.424 648.719 584.811 648.719 581.191 651.039 579.266 658.706 576.518 661.306 575.58 663.149 575.12 664.35 575.218L664.35 575.218ZM604.622 579.908C605.494 579.908 606.465 580.632 606.761 581.52 607.057 582.409 606.086 583.149 604.622 583.149 603.157 583.149 602.203 582.409 602.483 581.52 602.779 580.632 603.75 579.908 604.622 579.908L604.622 579.908ZM583.166 580.22C589.5 580.385 597.415 582.59 597.415 585.502 597.415 589.468 593.236 590.191 582.557 588.102 575.399 586.687 574.247 585.765 575.514 582.425 576.14 580.763 579.381 580.122 583.182 580.22L583.182 580.22ZM241.365 583.972C242.533 583.972 243.8 584.893 244.179 585.996 244.573 587.213 243.438 588.036 241.365 588.036 239.292 588.036 238.156 587.213 238.551 586.012 238.913 584.893 240.18 583.972 241.365 583.972L241.365 583.972ZM263.265 586.407C266.359 586.407 265.914 590.323 262.476 593.466 259.053 596.609 257.967 596.773 256.536 594.42 255.269 592.331 260.238 586.407 263.265 586.407L263.265 586.407ZM246.976 589.665C248.292 589.665 249.378 590.751 249.378 592.1 249.378 593.449 248.292 594.535 246.959 594.535 245.627 594.535 244.557 593.433 244.557 592.1 244.557 590.767 245.643 589.665 246.959 589.665L246.959 589.665ZM1112.84 596.23C1114.04 596.148 1115.39 596.971 1116.06 598.748 1117.61 602.861 1114.48 606.037 1111.69 603.19 1111.09 602.598 1110.62 600.771 1110.62 599.143 1110.62 597.3 1111.65 596.312 1112.84 596.23L1112.84 596.23ZM800.31 616.321C800.014 616.321 799.751 616.37 799.487 616.436 794.65 617.999 794.699 621.405 799.619 626.358 802.186 628.941 806.908 633.778 810.117 637.086 814.888 642.022 816.501 642.828 818.953 641.495 823.494 639.044 829.96 646.201 829.96 653.721 829.96 660.516 831.935 660.993 837.036 655.415 839.076 653.178 841.873 651.351 843.222 651.351 845.23 651.351 854.016 639.027 854.016 636.214 854.016 635.802 849.87 635.555 844.785 635.654 829.829 635.967 817.505 631.541 809.36 622.886 805.049 618.312 802.301 616.288 800.294 616.288L800.294 616.288ZM153.188 656.238C154.52 656.238 159.555 664.531 159.555 666.703 159.555 669.237 154.767 667.065 152.464 663.494 149.88 659.513 150.209 656.222 153.188 656.222L153.188 656.222ZM676.526 660.599C676.065 660.599 675.703 660.714 675.44 660.993 673.367 663.1 676.905 671.08 685.74 684.227 689.196 689.36 692.009 694.971 692.009 696.699 692.009 698.426 694.198 701.421 696.863 703.346 702.507 707.427 707.131 715.884 709.78 727.057 711.096 732.552 713.762 737.242 718.468 742.293 722.203 746.308 727.27 753.317 729.722 757.859 733.424 764.671 734.839 765.987 737.834 765.411 740.582 764.884 742.326 766.02 745.008 770.166 747.805 774.51 763.107 787.772 765.312 787.772 765.592 787.772 764.621 785.041 763.173 781.684 761.725 778.344 759.784 772.42 758.846 768.537 757.645 763.568 756.049 761.051 753.432 760.047 751.145 759.175 749.73 757.283 749.73 755.111 749.73 753.169 746.834 748.414 743.297 744.547 739.776 740.681 736.88 736.781 736.88 735.925 736.88 735.07 733.72 732.141 729.854 729.442 723.799 725.23 722.186 722.811 718.319 712.083 714.765 702.227 712.626 698.772 708.052 695.448 702.178 691.22 695.004 682.318 690.035 673.087 686.678 666.851 679.636 660.599 676.493 660.599L676.51 660.599ZM165.956 675.72C166.844 675.72 167.568 676.46 167.568 677.349 167.568 678.237 166.844 678.961 165.956 678.961 165.067 678.961 164.36 678.221 164.36 677.349 164.36 676.477 165.084 675.72 165.956 675.72L165.956 675.72ZM159.539 680.59C161.678 680.59 162.747 681.676 162.747 683.848 162.747 686.974 159.605 688.241 157.4 686.004 155.195 683.766 156.445 680.59 159.539 680.59L159.539 680.59ZM867.229 766.958C867.936 766.925 868.677 767.056 869.467 767.353 871.491 768.142 871.606 768.784 869.993 770.742 867.459 773.836 863.592 773.868 863.592 770.824 863.592 768.521 865.139 767.023 867.229 766.958L867.229 766.958ZM404.919 909.582C405.807 909.582 406.531 910.322 406.531 911.211 406.531 912.099 405.807 912.823 404.919 912.823 404.03 912.823 403.322 912.083 403.322 911.211 403.322 910.339 404.03 909.582 404.919 909.582L404.919 909.582ZM676.115 926.332C672.215 926.562 664.745 932.798 664.745 936.517 664.745 941.371 664.959 941.371 672.791 936.369 679.027 932.387 680.821 928.685 677.546 926.628 677.168 926.381 676.674 926.299 676.115 926.332L676.115 926.332ZM826.916 990.783C833.103 990.783 837.644 1010.69 832.445 1015.07 831.178 1016.14 828.71 1019.81 826.933 1023.23 821.717 1033.37 806.563 1057.7 798.928 1068.18 793.926 1075.06 789.631 1078.99 784.35 1081.49 774.773 1086.05 764.045 1087.58 761.363 1084.78 760.261 1083.63 759.356 1079.29 759.356 1075.11 759.356 1069.14 760.376 1066.24 764.161 1061.4 767.863 1056.7 768.982 1053.62 768.982 1048.14 768.982 1034.96 771.894 1030.96 786.851 1023.61 798.155 1018.05 802.087 1014.99 811.992 1003.91 819.15 995.9 824.958 990.783 826.9 990.783L826.9 990.783ZM866.735 1033C867.673 1033 868.43 1033.74 868.43 1034.63 868.43 1035.52 868.117 1036.26 867.722 1036.26 867.328 1036.26 866.571 1035.52 866.028 1034.63 865.485 1033.74 865.797 1033.02 866.735 1033.02L866.735 1033.02Z" fill="#FFFFFF" fill-opacity="0.7" transform="matrix(1 0 0 1.00046 1624.26 687)"/></g></g></g><path d="M1954 1264.5C1954 1128.36 2064.36 1018 2200.5 1018 2336.64 1018 2447 1128.36 2447 1264.5 2447 1400.64 2336.64 1511 2200.5 1511 2064.36 1511 1954 1400.64 1954 1264.5Z" fill="#92D050" fill-rule="evenodd" fill-opacity="0.501961"/><path d="M2432.19 627.017 2411.1 684.95" stroke="#000000" stroke-width="2.29167" stroke-miterlimit="8" stroke-dasharray="2.29167 2.29167" fill="none" fill-rule="evenodd"/><path d="M1613.86 924.576 1667.26 955.401" stroke="#000000" stroke-width="2.29167" stroke-miterlimit="8" stroke-dasharray="2.29167 2.29167" fill="none" fill-rule="evenodd"/><path d="M2789.11 923.25 2735.71 954.076" stroke="#000000" stroke-width="2.29167" stroke-miterlimit="8" stroke-dasharray="2.29167 2.29167" fill="none" fill-rule="evenodd"/><path d="M2411.48 685.073C2548.69 734.957 2663.72 831.954 2736.06 958.766L2201 1264Z" fill="#C00000" fill-rule="evenodd" fill-opacity="0.74902"/><path d="M1966.51 625.795 1987.6 683.729" stroke="#000000" stroke-width="2.29167" stroke-miterlimit="8" stroke-dasharray="2.29167 2.29167" fill="none" fill-rule="evenodd"/><path d="M2866.65 1381.76 2805.93 1371.06" stroke="#000000" stroke-width="2.29167" stroke-miterlimit="8" stroke-dasharray="2.29167 2.29167" fill="none" fill-rule="evenodd"/><path d="M2305.98 1204.25C2322.23 1228.87 2328.36 1258.22 2323.24 1286.79L2198.5 1267Z" fill="#C00000" fill-rule="evenodd" fill-opacity="0.74902"/><path d="M2636.16 1783.68 2596.53 1736.45" stroke="#000000" stroke-width="2.29167" stroke-miterlimit="8" stroke-dasharray="2.29167 2.29167" fill="none" fill-rule="evenodd"/><path d="M2200 1942.65 2200 1881" stroke="#000000" stroke-width="2.29167" stroke-miterlimit="8" stroke-dasharray="2.29167 2.29167" fill="none" fill-rule="evenodd"/><path d="M2369.7 1726.84C2314.61 1747.06 2256.36 1757.27 2197.69 1756.99L2200 1263.5Z" fill="#C00000" fill-rule="evenodd" fill-opacity="0.74902"/><path d="M2597.96 1737.33C2542.76 1784.08 2479.82 1820.7 2412.01 1845.55L2201 1264Z" fill="#C00000" fill-rule="evenodd" fill-opacity="0.74902"/><path d="M2199.34 1385.99C2170.35 1385.75 2142.3 1376.28 2119.75 1359.12L2200.5 1265Z" fill="#C00000" fill-rule="evenodd" fill-opacity="0.74902"/><path d="M1959.86 1550.45C1895.83 1492.86 1853.11 1413.96 1839.06 1327.28L2199 1264.5Z" fill="#C00000" fill-rule="evenodd" fill-opacity="0.74902"/><path d="M1830.5 1264.5C1830.5 1060.15 1996.15 894.5 2200.5 894.5 2404.85 894.5 2570.5 1060.15 2570.5 1264.5 2570.5 1468.85 2404.85 1634.5 2200.5 1634.5 1996.15 1634.5 1830.5 1468.85 1830.5 1264.5Z" stroke="#FF0000" stroke-width="4.58333" stroke-miterlimit="8" fill="none" fill-rule="evenodd"/><path d="M1707.5 1265C1707.5 992.447 1928.22 771.5 2200.5 771.5 2472.78 771.5 2693.5 992.447 2693.5 1265 2693.5 1537.55 2472.78 1758.5 2200.5 1758.5 1928.22 1758.5 1707.5 1537.55 1707.5 1265Z" stroke="#FF0000" stroke-width="4.58333" stroke-miterlimit="8" fill="none" fill-rule="evenodd"/><path d="M1584.5 1265C1584.5 924.517 1860.52 648.5 2201 648.5 2541.48 648.5 2817.5 924.517 2817.5 1265 2817.5 1605.48 2541.48 1881.5 2201 1881.5 1860.52 1881.5 1584.5 1605.48 1584.5 1265Z" stroke="#FF0000" stroke-width="4.58333" stroke-miterlimit="8" fill="none" fill-rule="evenodd"/><path d="M1593.09 1371.35 2200.24 1264.29" stroke="#000000" stroke-width="2.29167" stroke-miterlimit="8" fill="none" fill-rule="evenodd"/><path d="M1665.43 956.029 2199.35 1264.29" stroke="#000000" stroke-width="2.29167" stroke-miterlimit="8" fill="none" fill-rule="evenodd"/><path d="M2734.75 956.032 2200.83 1264.29" stroke="#000000" stroke-width="2.29167" stroke-miterlimit="8" fill="none" fill-rule="evenodd"/><path d="M2411.1 684.955 2200.24 1264.29" stroke="#000000" stroke-width="2.29167" stroke-miterlimit="8" fill="none" fill-rule="evenodd"/><path d="M1989.38 684.95 2200.24 1264.29" stroke="#000000" stroke-width="2.29167" stroke-miterlimit="8" fill="none" fill-rule="evenodd"/><path d="M2200 1878.52 2200 1262" stroke="#000000" stroke-width="2.29167" stroke-miterlimit="8" fill="none" fill-rule="evenodd"/><path d="M1804.54 1736.57 2200.83 1264.29" stroke="#000000" stroke-width="2.29167" stroke-miterlimit="8" fill="none" fill-rule="evenodd"/><path d="M2595.93 1736.57 2199.65 1264.29" stroke="#000000" stroke-width="2.29167" stroke-miterlimit="8" fill="none" fill-rule="evenodd"/><path d="M2807.39 1371.35 2200.24 1264.29" stroke="#000000" stroke-width="2.29167" stroke-miterlimit="8" fill="none" fill-rule="evenodd"/><path d="M1763.97 1784.5 1803.6 1737.27" stroke="#000000" stroke-width="2.29167" stroke-miterlimit="8" stroke-dasharray="2.29167 2.29167" fill="none" fill-rule="evenodd"/><path d="M1534.29 1381.76 1595.01 1371.06" stroke="#000000" stroke-width="2.29167" stroke-miterlimit="8" stroke-dasharray="2.29167 2.29167" fill="none" fill-rule="evenodd"/><path d="M2442.51 1307.23C2432.76 1364.34 2403.08 1416.14 2358.76 1453.45L2201 1266Z" fill="#C00000" fill-rule="evenodd" fill-opacity="0.74902"/><path d="M2431.18 1899.22 2199.24 1261.95" stroke="#000000" stroke-width="2.29167" stroke-miterlimit="8" stroke-dasharray="2.29167 2.29167" fill="none" fill-rule="evenodd"/><path d="M2093.35 979.872C2161.07 954.808 2235.48 954.551 2303.36 979.147L2199.35 1266.24Z" fill="#C00000" fill-rule="evenodd" fill-opacity="0.74902"/><path d="M2077.5 1263C2077.5 1194.79 2132.79 1139.5 2201 1139.5 2269.21 1139.5 2324.5 1194.79 2324.5 1263 2324.5 1331.21 2269.21 1386.5 2201 1386.5 2132.79 1386.5 2077.5 1331.21 2077.5 1263Z" stroke="#4DAF46" stroke-width="4.58333" stroke-miterlimit="8" fill="none" fill-rule="evenodd"/><path d="M1955.5 1265C1955.5 1128.86 2065.86 1018.5 2202 1018.5 2338.14 1018.5 2448.5 1128.86 2448.5 1265 2448.5 1401.14 2338.14 1511.5 2202 1511.5 2065.86 1511.5 1955.5 1401.14 1955.5 1265Z" stroke="#4DAF46" stroke-width="4.58333" stroke-miterlimit="8" fill="none" fill-rule="evenodd"/></g></svg>